<svg xmlns="http://www.w3.org/2000/svg" viewBox="0 0 1013.86434 873"><title>board</title><path d="M1297.2888,122H489.78623V929.50257h942.08633V122Zm67.74049,10.7667a56.07657,56.07657,0,1,1-56.07657,56.07657A56.07654,56.07654,0,0,1,1365.02929,132.7667Zm-134.58376,0a56.07657,56.07657,0,1,1-56.07657,56.07657A56.07654,56.07654,0,0,1,1230.44553,132.7667Zm0,650.48818a56.07657,56.07657,0,1,1,56.07657-56.07657A56.07657,56.07657,0,0,1,1230.44553,783.25488Zm-134.58376,0a56.07657,56.07657,0,1,1,56.07657-56.07657A56.07657,56.07657,0,0,1,1095.86177,783.25488Zm-134.58376,0a56.07657,56.07657,0,1,1,56.07656-56.07657A56.07657,56.07657,0,0,1,961.278,783.25488Zm-134.58377,0a56.07657,56.07657,0,1,1,56.07657-56.07657A56.07657,56.07657,0,0,1,826.69424,783.25488Zm-134.58376,0a56.07657,56.07657,0,1,1,56.07657-56.07657A56.07657,56.07657,0,0,1,692.11048,783.25488Zm0-515.90442A56.07657,56.07657,0,1,1,636.03392,323.427,56.07654,56.07654,0,0,1,692.11048,267.35046Zm134.58376,0A56.07657,56.07657,0,1,1,770.61768,323.427,56.07654,56.07654,0,0,1,826.69424,267.35046Zm134.58377,0A56.07657,56.07657,0,1,1,905.20144,323.427,56.07654,56.07654,0,0,1,961.278,267.35046Zm134.58376,0A56.07657,56.07657,0,1,1,1039.7852,323.427,56.07654,56.07654,0,0,1,1095.86177,267.35046Zm56.07657,325.24409a56.07657,56.07657,0,1,1-56.07657-56.07656A56.07658,56.07658,0,0,1,1151.93834,592.59455Zm-134.58377,0A56.07657,56.07657,0,1,1,961.278,536.518,56.07657,56.07657,0,0,1,1017.35457,592.59455Zm-134.58376,0A56.07657,56.07657,0,1,1,826.69424,536.518,56.07658,56.07658,0,0,1,882.77081,592.59455ZM770.61768,458.01079a56.07657,56.07657,0,1,1,56.07656,56.07657A56.07654,56.07654,0,0,1,770.61768,458.01079Zm134.58376,0A56.07657,56.07657,0,1,1,961.278,514.08736,56.07654,56.07654,0,0,1,905.20144,458.01079Zm190.66033,56.07657a56.07657,56.07657,0,1,1,56.07657-56.07657A56.07658,56.07658,0,0,1,1095.86177,514.08736ZM692.11048,401.93422a56.07657,56.07657,0,1,1-56.07656,56.07657A56.07654,56.07654,0,0,1,692.11048,401.93422Zm0,134.58377a56.07657,56.07657,0,1,1-56.07656,56.07656A56.07654,56.07654,0,0,1,692.11048,536.518Zm538.335,112.15313a56.07657,56.07657,0,1,1,56.07657-56.07657A56.07658,56.07658,0,0,1,1230.44553,648.67112Zm0-134.58376a56.07657,56.07657,0,1,1,56.07657-56.07657A56.07658,56.07658,0,0,1,1230.44553,514.08736Zm0-134.58376A56.07657,56.07657,0,1,1,1286.5221,323.427,56.07658,56.07658,0,0,1,1230.44553,379.5036ZM1095.86177,132.7667a56.07657,56.07657,0,1,1-56.07657,56.07657A56.07654,56.07654,0,0,1,1095.86177,132.7667Zm-134.58376,0a56.07657,56.07657,0,1,1-56.07657,56.07657A56.07654,56.07654,0,0,1,961.278,132.7667Zm-134.58377,0a56.07657,56.07657,0,1,1-56.07656,56.07657A56.07654,56.07654,0,0,1,826.69424,132.7667Zm-134.58376,0a56.07657,56.07657,0,1,1-56.07656,56.07657A56.07654,56.07654,0,0,1,692.11048,132.7667Zm-134.58376,0a56.07657,56.07657,0,1,1-56.07657,56.07657A56.07654,56.07654,0,0,1,557.52672,132.7667ZM613.60329,323.427a56.07657,56.07657,0,1,1-56.07657-56.07657A56.07658,56.07658,0,0,1,613.60329,323.427Zm0,134.58376a56.07657,56.07657,0,1,1-56.07657-56.07657A56.07658,56.07658,0,0,1,613.60329,458.01079Zm0,134.58376A56.07657,56.07657,0,1,1,557.52672,536.518,56.07658,56.07658,0,0,1,613.60329,592.59455Zm0,134.58376a56.07657,56.07657,0,1,1-56.07657-56.07656A56.07657,56.07657,0,0,1,613.60329,727.17831ZM557.52672,917.83864a56.07657,56.07657,0,1,1,56.07657-56.07656A56.07657,56.07657,0,0,1,557.52672,917.83864Zm134.58376,0a56.07657,56.07657,0,1,1,56.07657-56.07656A56.07657,56.07657,0,0,1,692.11048,917.83864Zm134.58376,0a56.07657,56.07657,0,1,1,56.07657-56.07656A56.07657,56.07657,0,0,1,826.69424,917.83864Zm134.58377,0a56.07657,56.07657,0,1,1,56.07656-56.07656A56.07657,56.07657,0,0,1,961.278,917.83864Zm134.58376,0a56.07657,56.07657,0,1,1,56.07657-56.07656A56.07657,56.07657,0,0,1,1095.86177,917.83864Zm134.58376,0a56.07657,56.07657,0,1,1,56.07657-56.07656A56.07657,56.07657,0,0,1,1230.44553,917.83864Zm134.58376,0a56.07657,56.07657,0,1,1,56.07657-56.07656A56.07657,56.07657,0,0,1,1365.02929,917.83864Zm-56.07657-190.66033a56.07657,56.07657,0,1,1,56.07657,56.07657A56.07654,56.07654,0,0,1,1308.95272,727.17831Zm0-134.58376a56.07657,56.07657,0,1,1,56.07657,56.07657A56.07654,56.07654,0,0,1,1308.95272,592.59455Zm0-134.58376a56.07657,56.07657,0,1,1,56.07657,56.07657A56.07655,56.07655,0,0,1,1308.95272,458.01079Zm0-134.58376a56.07657,56.07657,0,1,1,56.07657,56.07657A56.07654,56.07654,0,0,1,1308.95272,323.427Z" transform="translate(-453 -122)" style="fill:#4366d6"/><rect y="807.50257" width="1013.86434" height="65.49743" style="fill:#375ebf"/></svg>