<svg xmlns="http://www.w3.org/2000/svg" viewBox="0 0 830.80252 496.40457"><title>logo</title><path d="M650.12468,484.2677,574.21693,339.5645l-77.58708-194.685L477.36248,348.52079,199.38285,277.11122,413.811,448.31161,147.79672,581.77476l275.28874-32.49789-85.56093,92.00722,109.98031-62.51665L425.38546,613.563ZM423.16109,580.73092l52.90514-57.91068L306.36838,543.76059l164.183-84.2849L338.75967,352.46023l171.1501,44.26367,12.27615-127.83762,47.42349,122.02494,46.4877,90.66116-138.741,81.58743,13.699-21.8805Z" transform="translate(-147.79672 -144.87952)" style="fill:#f4455a"/><path d="M498.796,536.3041l100.67483-64.35765-32.64435-69.66386L533.79749,308.379l-10.02073,98.94826-122.855-32.64262,93.93,81.521-119.02322,66.6778,122.41061-17.75518L459.6023,550.3888l49.26159-31.12758Zm.43585-24.84568,22.05218-25.8327-69.86645,10.13385,67.933-38.05662-53.61093-46.52849,70.12005,18.63089,5.71942-56.47518,18.85139,53.5959,18.63193,39.761-57.46063,36.73247,5.74632-9.7273Z" transform="translate(-147.79672 -144.87952)" style="fill:#f4455a"/><path d="M577.00269,257.073q56.22354,162.98762,0,325.975,200.79849,45.63657,401.59655,0-56.22363-162.98753,0-325.975Q777.80084,211.43651,577.00269,257.073Zm334.52655,28.06714c12.33416,1.66815,19.88067,14.22436,17.50061,27.72-2.3786,13.50235-13.14911,23.52847-24.7,22.58334-11.53687-.9621-19.93653-13.11175-18.32544-27.32666C887.58575,293.90842,899.21,283.47556,911.52924,285.14014Zm-67.00617-6.60077c12.33014.833,20.89874,13.40838,19.51093,27.76211-1.37964,14.36066-11.55616,25.46936-23.103,25.0022-11.54022-.48383-20.53412-12.65259-19.92242-27.36884C821.59772,289.22562,832.19965,277.70981,844.52307,278.53937Zm-67.00616-2.18781c12.32635-.00183,21.91644,12.22388,21.52124,26.9816-.37909,14.76431-9.96259,26.588-21.50592,26.59842-11.5437-.00635-21.13135-11.82544-21.51947-26.58832C755.60876,288.58734,765.18994,276.35681,777.51691,276.35156Zm-65.11866,2.10211c12.32343-.81289,22.90509,10.72031,23.47492,25.43488.59192,14.72134-8.41358,26.88669-19.95386,27.36139-11.54736.45776-21.71252-10.66864-23.07153-25.04157C691.47937,291.842,700.06836,279.27054,712.39825,278.45367ZM642.56091,285.34c12.31946-1.6832,23.96558,8.72073,25.57013,22.91256,1.634,14.19858-6.75293,26.34348-18.28943,27.31623-11.55047.9559-22.3349-9.04129-24.736-22.51926C622.70288,299.57855,630.22681,287.02673,642.56091,285.34Zm11.98951,138.93066c11.15515,0,20.1947,11.50735,19.74633,25.70346-.41833,14.19446-10.32971,25.23572-21.69427,24.52533-11.37891-.7193-19.55591-12.3352-18.91223-25.80872C634.33209,435.21542,643.38092,424.28256,654.55042,424.27063Zm-9.209,119.80908c-12.16009-1.54565-19.7486-13.975-17.59582-27.46167,2.15161-13.49237,12.65795-23.63354,24.1123-22.81372,11.44006.8356,19.88562,12.89853,18.42419,27.10712C668.85059,535.11389,657.48743,545.62134,645.34143,544.07971Zm9.93243-139.05957c-11.176.11756-20.42047-10.70239-21.29443-24.19342-.87555-13.48855,7.18414-25.23849,18.64661-26.082,11.44836-.83572,21.54931,10.13315,22.1228,24.33746C675.3515,393.28925,666.43561,404.88989,655.27386,405.02014Zm62.92261,19.4657c11.15912.00305,20.20026,11.93707,20.03388,26.65582-.14392,14.7175-9.60755,26.48184-20.97589,26.14041-11.37555-.34985-19.99982-12.39245-19.63056-26.761C697.98462,436.15057,707.03076,424.49475,718.19647,424.48584Zm-3.97284,125.86774c-12.156-.74341-20.72644-13.24182-19.50561-27.617,1.2124-14.38135,11.18286-25.59088,22.63336-25.20172,11.44342.40518,20.425,12.538,19.9032,27.26245C736.75519,539.51587,726.37323,551.09216,714.22363,550.35358Zm4.76734-146.0943c-11.17188.05288-20.33142-11.53928-20.82141-25.91864-.49909-14.37693,8.09137-26.49314,19.55053-26.90006,11.45179-.399,21.02271,11.3421,21.21894,26.06272C739.15814,392.2262,730.15631,404.19348,718.991,404.25928Zm58.55114,20.29226c11.16248.006,20.2063,11.97663,20.30207,26.73871.1109,14.76007-8.934,26.83869-20.30622,26.84128-11.37164-.006-20.41412-12.08545-20.30023-26.844C757.33606,436.52716,766.37952,424.5578,777.54211,424.55154Zm.90955,127.67984c-12.15271.0055-21.63855-12.19787-21.28632-26.95672.33631-14.76483,9.80713-26.61112,21.25434-26.62323,11.447.00424,20.92883,11.84076,21.28222,26.60211C800.07166,540.00854,790.60449,552.22156,778.45166,552.23138Zm-.04877-148.19982c-11.16913-.0073-20.24823-11.95908-20.38031-26.72223-.1477-14.76068,8.938-26.85779,20.39331-26.8577,11.45533.00778,20.53113,12.10916,20.37616,26.86627C798.65277,392.07761,789.57184,404.02579,778.40289,404.03156Zm60.205,20.45159c11.16583.00888,20.21222,11.65488,20.578,26.01294.37421,14.35636-8.24139,26.39463-19.61694,26.75138-11.368.34854-20.84045-11.40647-20.98956-26.1182C818.40723,436.41586,827.44934,424.48605,838.60791,424.48315Zm5.93341,125.6789c-12.14935.77527-22.57611-10.76013-23.11865-25.46619-.56537-14.71188,8.39166-26.84964,19.83533-27.2749,11.45086-.409,21.446,10.76,22.70129,25.11169C865.22314,536.87769,856.69812,549.38232,844.54132,550.16205ZM839.53687,404.2825c-11.1648-.06863-20.1626-12.02768-19.9264-26.738.21344-14.70749,9.8089-26.42222,21.2605-26.00309,11.45911.42688,20.0249,12.53485,19.509,26.88208C859.87231,392.77289,850.70947,404.33838,839.53687,404.2825Zm60.13684,19.99436c11.16894.01214,20.21814,10.96453,20.85394,24.46447.63763,13.49826-7.549,25.1276-18.9278,25.83884-11.36547.70254-21.266-10.359-21.67871-24.56976C879.47925,435.79788,888.51855,424.277,899.67371,424.27686ZM910.631,544.03406c-12.14593,1.54559-23.51434-8.95453-24.951-23.153-1.46673-14.20465,6.976-26.26556,18.41626-27.10385,11.4549-.82217,21.96357,9.31168,24.1203,22.79849C930.37518,530.056,922.791,542.48389,910.631,544.03406Zm-9.9602-139.00839c-11.1612-.13035-20.07709-11.72855-19.47248-25.9311.57514-14.2001,10.67939-25.1636,22.12769-24.32574,11.46246.84573,19.5191,12.5925,18.64178,26.07516C921.09174,394.3288,911.84662,405.14362,900.67084,405.02567Z" transform="translate(-147.79672 -144.87952)" style="fill:#f4455a"/></svg>