<svg xmlns="http://www.w3.org/2000/svg" viewBox="0 0 472.61434 339.68329"><title>message-send</title><path d="M471.197,70.93a10.01866,10.01866,0,0,0-.756-1.039,9.38982,9.38982,0,0,0-10.778-2.741L6.088,239.77a9.363,9.363,0,0,0-6.049,9.64,9.24042,9.24042,0,0,0,7.562,8.415L131.63,281.931l26.565,116.184.094.663a7.803,7.803,0,0,0,.756,2.077,8.69461,8.69461,0,0,0,.756,1.231c.378.567.851,1.041,1.229,1.511a8.82074,8.82074,0,0,0,4.348,2.271,1.7829,1.7829,0,0,0,.663.187c.473,0,1.04.095,1.512.095a12.86233,12.86233,0,0,0,1.89-.189,4.9497,4.9497,0,0,0,.945-.282.34468.34468,0,0,0,.284-.096,7.25508,7.25508,0,0,0,1.513-.661h.095c.188-.189.473-.284.661-.473l130.079-91.414,73.548,13.896a11.39583,11.39583,0,0,0,1.797.095,9.38017,9.38017,0,0,0,8.886-6.239l84.797-241.538a10.46587,10.46587,0,0,0,.567-3.497A8.708,8.708,0,0,0,471.197,70.93ZM224.085,282.783a5.1956,5.1956,0,0,0-1.419,1.796.73957.73957,0,0,0-.377.378l-50.86,86.404-21.175-92.928L385.266,134.647Z" transform="translate(-0.00062 -66.46667)"/></svg>